<?xml version="1.0" encoding="utf-8"?>
<!-- Generator: Adobe Illustrator 24.1.0, SVG Export Plug-In . SVG Version: 6.00 Build 0)  -->
<svg version="1.1" id="Capa_1" xmlns="http://www.w3.org/2000/svg" xmlns:xlink="http://www.w3.org/1999/xlink" x="0px" y="0px"
	 viewBox="0 0 300 230.1" style="enable-background:new 0 0 300 230.1;" xml:space="preserve">
<style type="text/css">
	.st0{fill:#004F98;}
	.st1{fill:#FFFFFF;}
	.st2{fill:#1D1D1B;stroke:#004F98;stroke-miterlimit:10;}
	.st3{fill:#014F98;stroke:#004F98;stroke-miterlimit:10;}
	.st4{fill:#B3B3B3;}
</style>
<path class="st0" d="M141.1,174.3h155c2.2,0,4,1.8,4,3.9v47.8c0,2.2-1.8,3.9-4,3.9h-155c-2.2,0-3.9-1.8-3.9-3.9v-47.8
	C137.1,176.1,138.9,174.3,141.1,174.3z"/>
<path class="st1" d="M145.9,184.3h19.9v4.5h-14.9v10.7h14.4v4.5h-14.4v10.9h15.4v4.5h-20.4V184.3z"/>
<path class="st1" d="M169.9,217.7v-4.9c1.2,0.9,2.6,1.6,4,2.2c1.1,0.5,2.2,0.8,3.4,0.8c0.9,0,1.7-0.2,2.5-0.7c0.6-0.3,1-1,1-1.7
	c0-0.6-0.2-1.2-0.7-1.7c-0.9-0.8-1.8-1.4-2.9-1.9c-2.9-1.6-4.9-3.1-5.8-4.2c-0.9-1.1-1.4-2.4-1.4-3.8c0-1.7,0.7-3.3,2.1-4.3
	c1.5-1.2,3.4-1.8,5.3-1.7c2.5,0,4.9,0.7,7,1.9v4.5c-2.7-1.6-4.9-2.5-6.7-2.5c-0.8,0-1.5,0.2-2.1,0.6c-0.5,0.3-0.8,0.9-0.8,1.5
	c0,0.6,0.3,1.1,0.7,1.5c0.8,0.7,1.7,1.3,2.6,1.8l1.6,0.9c3.9,2.2,5.8,4.6,5.8,7.2c0,1.8-0.8,3.5-2.2,4.7c-1.6,1.3-3.7,1.9-5.7,1.8
	c-1.2,0-2.5-0.1-3.7-0.4C172.6,218.9,171.2,218.4,169.9,217.7z"/>
<path class="st1" d="M187.6,199.9l8.6-8.4v4.8h7.3v4.1h-7.3v11.3c0,2.7,1.1,4,3.3,4c1.8-0.1,3.6-0.6,5.2-1.6v4.3
	c-1.8,1-3.7,1.5-5.8,1.5c-1.9,0.1-3.8-0.6-5.2-1.8c-0.4-0.3-0.8-0.8-1.1-1.2c-0.3-0.6-0.6-1.2-0.7-1.8c-0.2-1.4-0.3-2.8-0.3-4.3
	v-10.3h-4L187.6,199.9z"/>
<path class="st1" d="M222.6,219.4v-3c-0.9,1-2.1,1.9-3.3,2.5c-1.2,0.6-2.4,0.9-3.7,0.9c-1.4,0-2.8-0.4-4-1.1c-1.2-0.7-2.2-1.7-2.8-3
	c-0.7-2-1.1-4.1-0.9-6.2v-13.2h4.6v13.2c0,2.4,0.4,4.1,1,5.1s1.9,1.4,3.6,1.4c2.3,0,4.4-1.3,5.6-3.2v-16.5h4.6v23.1H222.6z"/>
<path class="st1" d="M249.1,184.3h4.6v35.1h-9.8c-3.1,0.1-6-1-8.2-3.2c-2.1-2.4-3.2-5.5-3.1-8.7c-0.1-3.1,1-6.1,3.2-8.4
	c2.1-2.2,5.1-3.4,8.2-3.3c1.7,0,3.4,0.4,5,1L249.1,184.3z M249.1,215.4v-14.7c-1.3-0.7-2.8-1.1-4.3-1.1c-2.1-0.1-4,0.7-5.4,2.2
	c-1.4,1.7-2.1,3.8-2,6c-0.1,2,0.5,4,1.8,5.5c0.6,0.7,1.4,1.2,2.2,1.6c1.4,0.3,2.8,0.5,4.2,0.4L249.1,215.4z"/>
<path class="st1" d="M262.2,186.5c0.7,0,1.4,0.3,1.9,0.8c0.5,0.5,0.8,1.2,0.8,1.9c0,0.7-0.3,1.4-0.8,1.9c-0.5,0.5-1.2,0.8-1.9,0.8
	c-0.7,0-1.4-0.3-1.9-0.8c-1-1-1.1-2.7-0.1-3.7c0,0,0,0,0.1-0.1C260.9,186.8,261.5,186.5,262.2,186.5z M260,196.3h4.6v23.1H260V196.3
	z"/>
<path class="st1" d="M282.2,196.2c3.3-0.1,6.4,1.1,8.8,3.4c2.3,2.2,3.6,5.3,3.5,8.6c0.1,3.2-1.2,6.2-3.5,8.3
	c-2.4,2.2-5.6,3.4-8.9,3.3c-3.2,0.1-6.4-1.1-8.7-3.4c-4.6-4.6-4.7-12.1-0.1-16.7c0,0,0.1-0.1,0.1-0.1
	C275.7,197.3,278.9,196.1,282.2,196.2z M282,200.3c-2-0.1-4,0.7-5.4,2.2c-1.4,1.5-2.2,3.5-2.1,5.5c-0.1,2,0.7,4,2.2,5.4
	c1.5,1.4,3.5,2.2,5.5,2.1c2,0.1,4-0.7,5.5-2.1c1.4-1.4,2.2-3.4,2.1-5.4c0.1-2.1-0.8-4-2.2-5.4C286.1,201,284.1,200.3,282,200.3
	L282,200.3z"/>
<path class="st2" d="M67.2,93.4"/>
<polygon class="st3" points="139,135.3 111.7,135.3 111.7,96.1 139,84.5 "/>
<polygon class="st3" points="169.5,137.1 142.1,137.1 142.1,60.1 169.5,50.6 "/>
<polygon class="st3" points="200,130 172.6,130 172.6,26.5 200,16.9 "/>
<image style="overflow:visible;opacity:0.75;enable-background:new    ;" width="945" height="861" xlink:href="AAB971AB.png"  transform="matrix(0.1798 0 0 0.1798 65.9288 1.682073e-05)">
</image>
<path class="st4" d="M196.7,1.6c5,3.6,9.6,7.9,13.6,12.5c8.4,9.7,14.3,21.2,17.4,33.6c1.6,6.3,2.4,12.8,2.5,19.3
	c0,6.6-0.7,13.1-2.1,19.6c-0.2,0.8-0.4,1.6-0.6,2.4s-0.4,1.6-0.7,2.4c-0.5,1.6-1,3.2-1.5,4.7c-0.3,0.8-0.6,1.6-0.9,2.3l-0.5,1.1
	l-0.5,1.1c-0.2,0.4-0.3,0.8-0.5,1.1l-0.5,1.1c-0.3,0.8-0.7,1.5-1.1,2.2l-0.6,1.1l-0.6,1.1c-0.4,0.7-0.8,1.5-1.2,2.2
	s-0.9,1.4-1.3,2.1s-0.9,1.4-1.4,2.1c-0.9,1.4-1.9,2.8-2.9,4.1l-0.8,1l-0.8,1c-0.3,0.3-0.5,0.6-0.8,1l-0.8,1c-2.2,2.5-4.5,5-7,7.2
	c-0.6,0.6-1.2,1.1-1.9,1.7l-1,0.8l-1,0.8c-1.3,1.1-2.7,2.1-4.1,3c-5.6,3.9-11.6,6.9-18,9.2c-3.2,1.1-6.4,2-9.6,2.7
	c-3.2,0.7-6.5,1.2-9.8,1.5c-6.5,0.6-13.1,0.6-19.6-0.2c-1.6-0.2-3.2-0.4-4.8-0.7s-3.2-0.6-4.8-0.9s-3.2-0.7-4.7-1.2
	s-3.1-0.9-4.6-1.4c-6.1-2-12-4.6-17.6-7.8c-5.6-3.2-10.8-6.9-15.5-11.2c-4.7-4.3-8.7-9.2-12-14.5c-3.3-5.3-5.6-11.2-6.8-17.3
	c1.3,2.7,2.9,5.3,4.6,7.8c1.7,2.4,3.6,4.7,5.6,6.9c4,4.2,8.5,8,13.4,11.2c4.8,3.2,10,5.8,15.3,8c5.3,2.2,10.8,3.9,16.4,5.1
	c11,2.5,22.3,2.9,33.5,1.3c2.7-0.4,5.4-1,8.1-1.6c1.3-0.3,2.6-0.7,3.9-1.1c1.3-0.4,2.6-0.9,3.8-1.4c5-1.9,9.8-4.5,14.2-7.6
	c1.1-0.8,2.2-1.6,3.2-2.4l0.8-0.6l0.8-0.6l1.5-1.4c2-1.8,3.9-3.8,5.7-5.8l0.7-0.8l0.6-0.8l0.6-0.8l0.6-0.8c0.9-1.1,1.7-2.2,2.4-3.3
	c1.6-2.2,3-4.6,4.3-6.9c0.3-0.6,0.7-1.2,1-1.8l0.5-0.9c0.2-0.3,0.3-0.6,0.4-0.9l0.4-0.9l0.4-0.9c0.3-0.6,0.6-1.3,0.8-1.9
	c1.1-2.5,2-5.1,2.8-7.8c1.6-5.3,2.7-10.8,3.2-16.3c1-11.4-0.3-22.8-3.9-33.7c-1.8-5.6-4.1-11-6.9-16.2
	C203.6,11.5,200.3,6.4,196.7,1.6z"/>
<g>
	<path d="M15.2,183.5h3.6l15.9,35.7h-5.2l-4.7-10.5H9.7l-4.4,10.5H0L15.2,183.5z M22.7,204.1L17,191.3l-5.3,12.8H22.7z"/>
	<path d="M55.4,202.2v17h-4.6v-13c0-2.6-0.3-4.4-1-5.4c-0.7-1-1.9-1.5-3.6-1.5c-1,0-1.8,0.2-2.7,0.7c-0.8,0.4-1.7,1.2-2.8,2.3v17
		h-4.6v-23.4h4.6v3.1c2.4-2.4,4.7-3.5,6.9-3.5c3,0,5.3,1.4,6.9,4.2c2.5-2.8,5.1-4.3,7.7-4.3c2.3,0,4.1,0.8,5.6,2.5
		c1.5,1.7,2.2,4.2,2.2,7.6v13.8h-4.6v-13.8c0-1.9-0.4-3.4-1.2-4.5c-0.8-1-1.9-1.5-3.4-1.5C58.9,199.3,57.1,200.3,55.4,202.2z"/>
	<path d="M77.1,186c0.8,0,1.4,0.3,2,0.8c0.5,0.5,0.8,1.2,0.8,1.9c0,0.7-0.3,1.4-0.8,1.9c-0.5,0.5-1.2,0.8-2,0.8
		c-0.7,0-1.3-0.3-1.9-0.8c-0.5-0.5-0.8-1.2-0.8-1.9c0-0.7,0.3-1.3,0.8-1.9C75.8,186.3,76.4,186,77.1,186z M74.8,195.8h4.6v23.4h-4.6
		V195.8z"/>
	<path d="M81.2,199.5l8.7-8.5v4.8h7.4v4.2h-7.4v11.4c0,2.7,1.1,4,3.3,4c1.7,0,3.4-0.5,5.3-1.7v4.3c-1.8,1-3.7,1.5-5.8,1.5
		c-2.1,0-3.9-0.6-5.3-1.9c-0.4-0.4-0.8-0.8-1.1-1.3c-0.3-0.5-0.5-1.1-0.7-1.8c-0.2-0.8-0.3-2.2-0.3-4.3V200h-4.1V199.5z"/>
	<path d="M102.5,186c0.8,0,1.4,0.3,2,0.8c0.5,0.5,0.8,1.2,0.8,1.9c0,0.7-0.3,1.4-0.8,1.9c-0.5,0.5-1.2,0.8-2,0.8
		c-0.7,0-1.3-0.3-1.9-0.8c-0.5-0.5-0.8-1.2-0.8-1.9c0-0.7,0.3-1.3,0.8-1.9C101.2,186.3,101.8,186,102.5,186z M100.2,195.8h4.6v23.4
		h-4.6V195.8z"/>
	<path d="M129.8,207.9h-16.4c0.1,2.2,0.9,4,2.2,5.3c1.4,1.3,3.2,2,5.3,2c3,0,5.9-0.9,8.4-2.8v4.5c-1.4,0.9-2.8,1.6-4.2,2
		s-3,0.6-4.9,0.6c-2.6,0-4.7-0.5-6.2-1.6c-1.6-1.1-2.9-2.5-3.8-4.3c-1-1.8-1.4-3.9-1.4-6.3c0-3.6,1-6.4,3-8.7c2-2.2,4.6-3.3,7.8-3.3
		c3.1,0,5.6,1.1,7.4,3.3c1.8,2.2,2.8,5.1,2.8,8.7V207.9z M113.4,205.1h11.8c-0.1-1.8-0.7-3.3-1.7-4.3c-1-1-2.3-1.5-4-1.5
		c-1.7,0-3,0.5-4.1,1.5C114.4,201.9,113.7,203.3,113.4,205.1z M124.7,183.1l-5.7,7.6h-2.8l3.4-7.6H124.7z"/>
</g>
</svg>
