<?xml version="1.0" encoding="utf-8"?>
<!-- Generator: Adobe Illustrator 24.1.0, SVG Export Plug-In . SVG Version: 6.00 Build 0)  -->
<svg version="1.1" id="Capa_1" xmlns="http://www.w3.org/2000/svg" xmlns:xlink="http://www.w3.org/1999/xlink" x="0px" y="0px"
	 viewBox="0 0 512 512" style="enable-background:new 0 0 512 512;" xml:space="preserve">
<style type="text/css">
	.st0{fill:#004F98;}
</style>
<path class="st0" d="M498.1,175.3c26.9,91.7,12.8,176.3-51.2,248.4c-71.1,80.1-162.2,106.3-264.3,76.2
	C82.5,470.4,21.3,399.9,3.7,296.7C-20.3,155.9,74.5,26.9,216.3,3.3C254-3,291.3-0.1,328.2,10.4c9.9,2.8,10.4,5.5,3,12.4
	c-12.3,11.5-24.3,23.5-35.8,35.8c-5.4,5.8-10.9,7.2-18.8,6.4c-95.8-10-182.3,48.5-206.6,139.2c-28.9,108.3,34.1,214.8,143.7,239
	C345,472.1,461.3,365.7,446,233c-0.5-4.4-1.8-8.5,2-12.4c15.4-15.9,30.6-32,45.8-48.1C495.2,173.4,496.6,174.4,498.1,175.3z"/>
<path class="st0" d="M258.7,112.9c4,0,8-0.2,12,0c21.9,1.5,27.4,7.7,26.5,29.4c-0.2,4.1-2.5,6.4-5,8.9c-4.8,4.6-9.9,9-14.1,14.1
	c-6.4,7.7-13.5,10.5-24,10.3c-42.6-1.1-78,34.3-78.6,77.2c-0.7,45.3,32.7,81.7,76,83c45.3,1.4,83.5-31.5,83.3-75
	c-0.1-23.9,17.6-32.7,31-44.4c10-8.6,29.7,3.9,31.3,17.6c10.7,87.7-46.9,160.1-135.2,164.9c-72.1,3.9-137-44.1-147.7-121.5
	C101.5,185.9,167.1,112.5,258.7,112.9z"/>
<path class="st0" d="M483.6,100.1c-8.4-3.5-16.9-6.9-25.4-10.2l-29.7,29.7l-8-8l26.1-26.1c-1.7-0.6-3.4-1.3-5.1-1.9
	c-2.2-0.8-4.2-1.8-5.9-2.9l-36.9,36.9l-8-8l37.3-37.3c-0.6-1.2-1.2-2.5-1.8-3.9c-0.8-2.1-1.6-4.2-2.4-6.3l-28,28l-8-8l31.5-31.5
	c-3.3-8.1-6.7-16.1-10.2-24.1c-6.9-16-17.5-18.2-29.6-6.2c-16.1,15.9-32,32-48.1,48c-8.2,8.2-11,17.8-8.9,29.2
	c2.2,12.2,3.3,24.7,6.2,36.7c2.3,9.5-0.8,15.5-7.5,22c-27.4,26.6-54.3,53.7-81,81c-10.8,11.1-10.7,25.1-1.1,34.5
	c10.3,10.1,21.6,9.4,33.7-2.3c27.4-26.6,54.9-53.1,81.8-80.2c6.8-6.8,13.2-9.1,22.3-7.3c13.9,2.8,28,4.8,39.3,6.7
	c12.6,0.4,20.8-3.6,27.7-10.5c15.4-15.4,30.9-30.6,46.1-46.2C502.7,119,500.1,106.9,483.6,100.1z"/>
</svg>
