<?xml version="1.0" encoding="utf-8"?>
<!-- Generator: Adobe Illustrator 24.1.0, SVG Export Plug-In . SVG Version: 6.00 Build 0)  -->
<svg version="1.1" id="Capa_1" xmlns="http://www.w3.org/2000/svg" xmlns:xlink="http://www.w3.org/1999/xlink" x="0px" y="0px"
	 viewBox="0 0 512 512" style="enable-background:new 0 0 512 512;" xml:space="preserve">
<style type="text/css">
	.st0{fill:#004F98;}
</style>
<path class="st0" d="M200.7,361.5c-4.9,0-8.8-0.3-11-6.2c-10-27.4-26.3-50.9-44.2-73.7c-24.7-31.3-35.6-66.8-30.2-107
	c11.8-86.8,96.5-142.4,180.5-118.3c101,29.1,135.7,149.6,66.7,231.2c-16.6,19.7-29.9,41.5-38.9,65.7c-2.5,6.8-6.1,8.5-12.6,8.3
	c-18-0.3-36.1-0.1-54.1-0.1C238.2,361.5,219.5,361.4,200.7,361.5z M258.6,102.3c-8.2,0-14.3,2.4-15.2,11.6
	c-0.8,9.4,4.2,14.7,13.1,14.9c36.4,0.8,63.2,26.8,64.6,64.7c0.3,8.7,6.4,12.8,14.7,12.2c8.4-0.5,11.9-6.8,11.4-18.7
	C345.6,141.4,304.4,102.1,258.6,102.3z"/>
<path class="st0" d="M256.4,465.6c-1.8,0-3.7-0.4-5.4,0.1c-28.9,6.8-44.1-12.3-56-37.1c-6.8-14.3-2.6-30-3.4-45.1
	c-0.2-4.8,3.7-3.9,6.4-3.9c38.5,0,77,0.1,115.5-0.2c5.9,0,7.2,2.6,7.4,8.5c0.7,20.3-0.6,39.3-12.5,56.9
	c-9.3,13.7-18.8,22.6-34.8,20.9C268,465.1,262.2,465.6,256.4,465.6z"/>
<path class="st0" d="M39.8,99.2c12.3,7.5,28.7,17.2,45.6,26.5c7.7,4.2,16.4,2.1,20.7-5c4.6-7.6,2.4-17.2-5-21.7
	c-9.7-6-19.7-11.8-29.4-17.4c-5-2.9-10.1-5.8-15.2-8.8c-2.4-1.4-5.2-1.6-7.4-1.8l-0.4,0c-0.1,0-0.2,0-0.3,0
	c-8.5,0-13.5,3.5-15.6,10.9C30.7,89.1,33.1,95.1,39.8,99.2z"/>
<path class="st0" d="M83,206.3c0-11.7-8.7-14.9-16-15.4c-5.5-0.4-11.2-0.3-16.8-0.2c-2.5,0-5.2,0.1-7.8,0.1H39v-0.1
	c-1.4,0-2.8,0-4.2,0c-2.5,0-5.1-0.1-7.6-0.1c-3.1,0-6.2,0-9.3,0.2C7.4,191.2,0.4,197.2,0,206c-0.4,8.9,6.4,15.2,16.8,15.7
	c16.6,0.8,33.6,0.8,50.4,0.1C77.1,221.4,83,215.6,83,206.3z"/>
<path class="st0" d="M512,205.9c-0.2-8.2-5.3-13.8-13.5-14.5c-18.3-1.6-36.9-1.6-55.3,0c-8.5,0.7-14.2,6.7-14.3,14.9
	c0,8.2,5.6,14.1,14.3,14.9c6.2,0.6,12.7,0.5,19,0.3c2.8-0.1,5.7-0.1,8.6-0.1c0.1,0,0.2,0,0.2,0c2.9,0,5.8,0.1,8.6,0.1
	c6.5,0.2,12.7,0.3,18.8-0.3C507.1,220.3,512.2,214.6,512,205.9z"/>
<path class="st0" d="M54.5,340.9l6.1-3.5c13.7-7.7,27.8-15.8,41.3-24.3c6.6-4.2,8.2-12.7,3.9-20.2c-3-5.2-7.5-8-12.4-8
	c-2.3,0-4.7,0.6-7,1.8c-14,7.4-28.7,15.8-47.6,27.3c-6,3.6-8.1,9.6-6,16.7c2.3,7.8,7.5,11.2,16.7,11.1c0.3,0,0.5-0.1,0.9-0.1
	C51.5,341.8,53.3,341.6,54.5,340.9z"/>
<path class="st0" d="M472.3,313.6c-15-9.5-30.7-18.5-46.4-26.8c-3.6-1.9-7.7-2.3-11.6-1.1c-3.8,1.2-7,3.9-8.8,7.3
	c-3.9,7.6-1.5,16.4,5.7,20.9c14,8.7,28.7,16.9,42.9,24.9l1.8,1c1.5,0.9,3.5,1.3,5.1,1.6c0.5,0.1,0.9,0.2,1.4,0.3
	c8.3,0.2,13.3-2.9,16.1-10C481.4,324.4,479.2,317.9,472.3,313.6z"/>
<path class="st0" d="M464.2,70.9c-0.3,0-0.6,0-1,0c-0.1,0-0.1,0-0.2,0c-0.4,0-1,0-1.2,0.1c-21.1,9-39,19.4-54.6,31.9
	c-7.2,5.8-2.1,15.3-0.4,18.1c4,6.3,10.2,8.6,16.2,5.9c18.8-8.3,36.3-18.5,52.1-30.4c5-3.7,6.1-9.8,3-16.3
	C475.3,74,470.8,71,464.2,70.9z"/>
</svg>
