<svg id="b1327bfc-0ce1-430f-9687-bac56986433a" data-name="Capa 1" xmlns="http://www.w3.org/2000/svg" viewBox="0 0 300 55.73"><defs><style>.b965a9f4-d37a-4abd-8472-3bf532361463{fill:#004f98;}.b262a2db-a609-46c3-a558-7c3ef0443b20{fill:#fff;}</style></defs><rect class="b965a9f4-d37a-4abd-8472-3bf532361463" x="137.1" width="162.9" height="55.73" rx="3.95"/><path d="M15.24,10.68h3.53L34.51,46H29.37l-4.68-10.4h-15L5.33,46H.17Zm7.38,20.43L17,18.4,11.71,31.11Z" transform="translate(-0.17 -1.14)"/><path d="M56.66,29.2V46h-4.6V33.12c0-2.57-.34-4.35-1-5.37a4,4,0,0,0-3.59-1.52,5.31,5.31,0,0,0-2.62.66,11.2,11.2,0,0,0-2.73,2.31V46H37.52V22.87h4.57v3q3.49-3.5,6.83-3.5a7.51,7.51,0,0,1,6.81,4.17q3.68-4.21,7.66-4.22a7.07,7.07,0,0,1,5.54,2.47q2.17,2.46,2.17,7.51V46H66.53V32.29a7.1,7.1,0,0,0-1.18-4.42A4,4,0,0,0,62,26.33Q59.13,26.33,56.66,29.2Z" transform="translate(-0.17 -1.14)"/><path d="M79.74,13.15a2.69,2.69,0,0,1,1.94.78,2.54,2.54,0,0,1,.8,1.9,2.75,2.75,0,0,1-2.74,2.72,2.53,2.53,0,0,1-1.85-.82,2.6,2.6,0,0,1,0-3.77A2.52,2.52,0,0,1,79.74,13.15Zm-2.26,9.72h4.57V46H77.48Z" transform="translate(-0.17 -1.14)"/><path d="M85.42,26.53,94,18.09v4.78h7.31V27H94V38.3q0,4,3.29,4a10.27,10.27,0,0,0,5.2-1.63V44.9a11.61,11.61,0,0,1-5.75,1.48,7.61,7.61,0,0,1-5.23-1.84,5.3,5.3,0,0,1-1.08-1.24,6.62,6.62,0,0,1-.71-1.81,20.41,20.41,0,0,1-.29-4.26V27h-4Z" transform="translate(-0.17 -1.14)"/><path d="M125.48,34.82H109.23a7.56,7.56,0,0,0,2.23,5.28,7.33,7.33,0,0,0,5.28,2,13.71,13.71,0,0,0,8.34-2.82v4.47a15.07,15.07,0,0,1-4.18,2,17.16,17.16,0,0,1-4.86.61,10.85,10.85,0,0,1-6.18-1.59,11.54,11.54,0,0,1-3.78-4.25,13,13,0,0,1-1.42-6.19,12.3,12.3,0,0,1,3-8.58,10,10,0,0,1,7.76-3.31,9.17,9.17,0,0,1,7.34,3.22,12.88,12.88,0,0,1,2.73,8.62Zm-16.15-2.73H121a6.33,6.33,0,0,0-1.63-4.22,5.25,5.25,0,0,0-3.92-1.49,5.64,5.64,0,0,0-4,1.49A7.3,7.3,0,0,0,109.33,32.09Z" transform="translate(-0.17 -1.14)"/><path class="b262a2db-a609-46c3-a558-7c3ef0443b20" d="M146.09,11.07H166v4.47H151.11v10.7h14.37v4.5H151.11v10.9h15.35v4.47H146.09Z" transform="translate(-0.17 -1.14)"/><path class="b262a2db-a609-46c3-a558-7c3ef0443b20" d="M170.05,44.5V39.58a21,21,0,0,0,4,2.2,9.19,9.19,0,0,0,3.4.84,4.27,4.27,0,0,0,2.46-.71,2,2,0,0,0,1-1.68,2.25,2.25,0,0,0-.67-1.67,15.69,15.69,0,0,0-2.87-1.92q-4.43-2.46-5.79-4.21a6,6,0,0,1-1.37-3.8,5.34,5.34,0,0,1,2.07-4.35,8.2,8.2,0,0,1,5.34-1.68,14.75,14.75,0,0,1,7,1.91V29q-4.06-2.46-6.66-2.46a3.77,3.77,0,0,0-2.15.56,1.75,1.75,0,0,0-.81,1.5,2.1,2.1,0,0,0,.74,1.53,12.16,12.16,0,0,0,2.6,1.76l1.63.93q5.78,3.27,5.78,7.23a5.75,5.75,0,0,1-2.22,4.66,8.77,8.77,0,0,1-5.72,1.82,13.73,13.73,0,0,1-3.67-.44A24,24,0,0,1,170.05,44.5Z" transform="translate(-0.17 -1.14)"/><path class="b262a2db-a609-46c3-a558-7c3ef0443b20" d="M187.73,26.72l8.59-8.44v4.77h7.31v4.12h-7.31V38.48q0,4,3.29,4a10.18,10.18,0,0,0,5.2-1.63v4.27a11.51,11.51,0,0,1-5.75,1.48,7.63,7.63,0,0,1-5.22-1.83,4.91,4.91,0,0,1-1.08-1.25,6.35,6.35,0,0,1-.72-1.8,20.55,20.55,0,0,1-.29-4.26V27.17h-4Z" transform="translate(-0.17 -1.14)"/><path class="b262a2db-a609-46c3-a558-7c3ef0443b20" d="M222.82,46.16v-3a10.66,10.66,0,0,1-3.33,2.48,8.63,8.63,0,0,1-3.73.88,7.77,7.77,0,0,1-4-1.09,7.16,7.16,0,0,1-2.79-3,15,15,0,0,1-.94-6.22V23.05h4.57V36.22q0,3.64,1.05,5.08c.69,1,1.91,1.44,3.65,1.44a6.67,6.67,0,0,0,5.55-3.19V23.05h4.57V46.16Z" transform="translate(-0.17 -1.14)"/><path class="b262a2db-a609-46c3-a558-7c3ef0443b20" d="M249.25,11.07h4.59V46.16h-9.77a10.69,10.69,0,0,1-8.17-3.24,12.14,12.14,0,0,1-3.06-8.69,11.51,11.51,0,0,1,3.21-8.39,10.92,10.92,0,0,1,8.17-3.29,15,15,0,0,1,5,1Zm0,31.17V27.6a9.52,9.52,0,0,0-4.32-1.08,7,7,0,0,0-5.44,2.23,8.64,8.64,0,0,0-2,6,7.9,7.9,0,0,0,1.75,5.5,5.51,5.51,0,0,0,2.24,1.56,15,15,0,0,0,4.24.4Z" transform="translate(-0.17 -1.14)"/><path class="b262a2db-a609-46c3-a558-7c3ef0443b20" d="M262.41,13.33a2.66,2.66,0,0,1,1.93.78,2.54,2.54,0,0,1,.81,1.91,2.6,2.6,0,0,1-.81,1.91,2.64,2.64,0,0,1-1.93.8,2.51,2.51,0,0,1-1.86-.82,2.58,2.58,0,0,1-.8-1.89,2.55,2.55,0,0,1,.8-1.87A2.51,2.51,0,0,1,262.41,13.33Zm-2.26,9.72h4.57V46.16h-4.57Z" transform="translate(-0.17 -1.14)"/><path class="b262a2db-a609-46c3-a558-7c3ef0443b20" d="M282.38,23a12.07,12.07,0,0,1,8.76,3.4A11.44,11.44,0,0,1,294.63,35a10.87,10.87,0,0,1-3.54,8.3,12.56,12.56,0,0,1-8.91,3.3,12.05,12.05,0,0,1-8.69-3.35,11.15,11.15,0,0,1-3.5-8.38,11.22,11.22,0,0,1,3.53-8.45A12.33,12.33,0,0,1,282.38,23Zm-.25,4.12a7.2,7.2,0,0,0-5.4,2.16,7.53,7.53,0,0,0-2.11,5.5,7.19,7.19,0,0,0,2.16,5.41,7.63,7.63,0,0,0,5.55,2.1,7.53,7.53,0,0,0,5.51-2.12A7.34,7.34,0,0,0,290,34.73a7.27,7.27,0,0,0-2.24-5.45A7.76,7.76,0,0,0,282.13,27.12Z" transform="translate(-0.17 -1.14)"/></svg>